<svg width="34" height="22" viewBox="0 0 34 22" fill="none" xmlns="http://www.w3.org/2000/svg">
<path d="M31.7583 9.16666H2.24167C1.27977 9.16666 0.5 9.94643 0.5 10.9083V11.0917C0.5 12.0536 1.27977 12.8333 2.24167 12.8333H31.7583C32.7202 12.8333 33.5 12.0536 33.5 11.0917V10.9083C33.5 9.94643 32.7202 9.16666 31.7583 9.16666Z" fill="white"/>
<path d="M31.7583 18.3333H2.24167C1.27977 18.3333 0.5 19.1131 0.5 20.075V20.2583C0.5 21.2202 1.27977 22 2.24167 22H31.7583C32.7202 22 33.5 21.2202 33.5 20.2583V20.075C33.5 19.1131 32.7202 18.3333 31.7583 18.3333Z" fill="white"/>
<path d="M31.7583 0H2.24167C1.27977 0 0.5 0.77977 0.5 1.74167V1.925C0.5 2.8869 1.27977 3.66667 2.24167 3.66667H31.7583C32.7202 3.66667 33.5 2.8869 33.5 1.925V1.74167C33.5 0.77977 32.7202 0 31.7583 0Z" fill="white"/>
</svg>
