<svg width="32" height="33" viewBox="0 0 32 33" fill="none" xmlns="http://www.w3.org/2000/svg">
<path d="M12.8764 2.90971C14.9823 2.90779 17.0416 3.53052 18.7935 4.69913C20.5455 5.86774 21.9115 7.52972 22.7188 9.47482C23.526 11.4199 23.7382 13.5607 23.3286 15.6265C22.9189 17.6922 21.9057 19.59 20.4173 21.0798C18.9288 22.5697 17.0319 23.5845 14.9666 23.9961C12.9012 24.4077 10.7602 24.1974 8.81437 23.3919C6.86853 22.5865 5.2053 21.222 4.03509 19.4711C2.86489 17.7202 2.24027 15.6615 2.24027 13.5555C2.25304 10.7377 3.37742 8.03878 5.36904 6.04534C7.36066 4.0519 10.0586 2.92505 12.8764 2.90971ZM12.8764 0.916656C10.3766 0.916656 7.93305 1.65791 5.85459 3.04669C3.77614 4.43547 2.15618 6.4094 1.19957 8.71885C0.242964 11.0283 -0.00732821 13.5696 0.480346 16.0213C0.96802 18.473 2.17176 20.725 3.93934 22.4926C5.70692 24.2602 7.95895 25.4639 10.4107 25.9516C12.8624 26.4393 15.4036 26.189 17.7131 25.2324C20.0225 24.2757 21.9965 22.6558 23.3852 20.5773C24.774 18.4989 25.5153 16.0553 25.5153 13.5555C25.5153 10.2035 24.1837 6.98875 21.8134 4.6185C19.4432 2.24825 16.2284 0.916656 12.8764 0.916656Z" fill="white"/>
<path d="M31.0278 30.3653L23.8625 23.1514L22.4819 24.5222L29.6472 31.7361C29.7372 31.8268 29.8442 31.8988 29.9621 31.9481C30.0799 31.9974 30.2063 32.023 30.3341 32.0235C30.4618 32.0239 30.5884 31.9992 30.7066 31.9507C30.8248 31.9023 30.9323 31.831 31.0229 31.741C31.1136 31.651 31.1856 31.544 31.2349 31.4261C31.2842 31.3083 31.3098 31.1819 31.3103 31.0541C31.3107 30.9264 31.286 30.7998 31.2375 30.6816C31.1891 30.5634 31.1178 30.4559 31.0278 30.3653Z" fill="white"/>
</svg>
