<svg width="200" height="200" viewBox="0 0 200 200" fill="none" xmlns="http://www.w3.org/2000/svg">
<path d="M200 0H0V200H200V0Z" fill="#497CBF"/>
<path d="M151.234 53.2078H49.0095V144.255H151.234V53.2078Z" fill="white"/>
<path d="M200 57.5571L100.123 0L0 64.3711V67.7057L100.123 21.747L174.762 53.0627H160.675V130.772C159.404 130.227 158.034 129.688 156.566 129.177C154.688 128.525 152.904 128.003 151.234 127.582V136.133C159.323 138.438 167.118 141.648 174.468 145.702V61.0337H200V57.5571Z" fill="white"/>
<path d="M138.398 123.958C133.297 122.688 128.892 121.751 124.431 121.058C126.459 119.464 131.598 114.969 131.768 108.735C131.953 101.97 127.419 96.5364 121.77 92.6944C116.12 88.8524 109.981 86.2805 106.456 80.5364C103.759 76.1406 103.522 71.3678 103.742 67.9956H96.8452C97.0711 71.3678 96.8276 76.1406 94.1306 80.5364C90.6089 86.2805 84.4666 88.8524 78.8173 92.6944C73.168 96.5364 68.6339 101.973 68.8188 108.735C68.989 114.978 74.1276 119.464 76.1555 121.058C66.5085 123.524 57.3375 127.541 49.0095 132.947V142.901C53.86 139.089 59.0312 135.694 64.4666 132.752C69.4556 130.053 75.2252 126.982 83.4189 124.9C87.6488 123.826 91.9725 123.152 96.3316 122.888V118.811H90.292C88.2064 118.145 86.3227 116.974 84.8129 115.404C84.3668 114.934 81.5172 111.864 81.2912 107.285C81.0418 102.205 84.179 98.4936 86.0601 96.2667C89.2883 92.4392 91.3133 92.4798 94.8642 88.6553C97.1763 86.1471 99.015 83.2501 100.293 80.1014C100.293 80.1014 102.559 85.7383 105.503 88.9452C108.675 92.4044 110.418 92.2479 113.573 95.7593C115.334 97.7252 119.02 101.825 118.855 107.43C118.823 108.523 118.656 112.244 115.774 115.404C114.293 117.009 112.4 118.186 110.295 118.811H103.707C103.707 120.164 103.707 121.517 103.707 122.871C119.975 125.636 135.905 130.082 151.234 136.136V127.582C147.425 126.304 142.861 125.071 138.398 123.958Z" fill="#F4584C"/>
<path d="M49.0096 132.947C42.8978 137.468 37.202 142.514 31.9883 148.025C20.3874 160.313 13.9164 172.091 9.00075 181.176C5.70375 187.268 2.73268 193.527 0.0997925 199.928H8.69554C15.2409 186.78 25.6639 175.901 38.5914 168.722C55.8958 179.14 75.8014 184.575 96.0646 184.415V199.928H103.842V184.464C124.07 184.192 143.889 178.801 161.409 168.806C174.312 176.029 184.741 186.89 191.363 200H199.927C197.935 195.086 195.419 190.396 192.42 186.009C166.809 148.599 113.866 145.824 100.123 145.488C74.8806 144.925 50.0556 151.916 28.9068 165.544C34.1064 156.814 40.9266 149.132 49.0096 142.901V132.947Z" fill="white"/>
<path d="M96.1115 153.137V176.768C78.9556 176.728 62.0734 172.516 46.9553 164.503C62.2889 157.171 79.0772 153.289 96.1115 153.137Z" fill="#497CBF"/>
<path d="M103.836 153.137V176.768C120.992 176.728 137.874 172.516 152.992 164.503C137.659 157.17 120.87 153.288 103.836 153.137V153.137Z" fill="#497CBF"/>
</svg>
